PathFileType	4	(X/Y/Z)	D:/Ayumi_testdata/Ayumi_25_09_2024/motion/sumo_dl_80kg00/markers_experimental.trc	
DataRate	CameraRate	NumFrames	NumMarkers	Units	OrigDataRate	OrigDataStartFrame	OrigNumFrames	
200.00	200.00	4	52	mm	200.00	1810	2164	
Frame#	Time	RSACR			LSACR			USACR			LBAR			RBAR			RHEE			RMT1			RMT5			RMT2			LHEE			LMT1			LMT5			LMT2			LMMAL			LLMAL			LTIB4			LTIB2			LTIB3			LTIB1			RMMAL			RLMAL			RTIB1			RTIB2			RTIB3			RTHI1			RTHI4			RTHI3			RTHI2			LTHI1			LTHI4			LTHI3			LTHI2			FHD			LBHD			RBHD			C7			T10			CLAV			LSHO			RSHO			LRAD			LUL			LRFIN			RRAD			RUL			RUFIN			LDUPA			LMUPA			LUUPA			RDUPA			RUUPA			RMUPA			
		X1	Y1	Z1	X2	Y2	Z2	X3	Y3	Z3	X4	Y4	Z4	X5	Y5	Z5	X6	Y6	Z6	X7	Y7	Z7	X8	Y8	Z8	X9	Y9	Z9	X10	Y10	Z10	X11	Y11	Z11	X12	Y12	Z12	X13	Y13	Z13	X14	Y14	Z14	X15	Y15	Z15	X16	Y16	Z16	X17	Y17	Z17	X18	Y18	Z18	X19	Y19	Z19	X20	Y20	Z20	X21	Y21	Z21	X22	Y22	Z22	X23	Y23	Z23	X24	Y24	Z24	X25	Y25	Z25	X26	Y26	Z26	X27	Y27	Z27	X28	Y28	Z28	X29	Y29	Z29	X30	Y30	Z30	X31	Y31	Z31	X32	Y32	Z32	X33	Y33	Z33	X34	Y34	Z34	X35	Y35	Z35	X36	Y36	Z36	X37	Y37	Z37	X38	Y38	Z38	X39	Y39	Z39	X40	Y40	Z40	X41	Y41	Z41	X42	Y42	Z42	X43	Y43	Z43	X44	Y44	Z44	X45	Y45	Z45	X46	Y46	Z46	X47	Y47	Z47	X48	Y48	Z48	X49	Y49	Z49	X50	Y50	Z50	X51	Y51	Z51	X52	Y52	Z52	

1353	6.760	396.62048	973.39996	827.90955	398.75385	915.29767	831.38782	390.04999	944.62201	845.87866	232.24593	-186.12094	613.19135	168.23460	2033.77783	608.49670	291.19614	1380.14661	28.06754	126.15441	1490.91211	44.67858	191.60353	1539.02771	29.94063	155.21123	1519.46289	42.05439	333.09741	484.07108	39.25497	163.50906	386.72882	49.70448	226.31648	336.36981	30.41029	188.35130	356.53964	46.29896	271.87512	501.00153	63.84555	313.22385	432.16504	73.42491	336.80267	502.90378	200.45198	323.04410	515.60974	263.23108	362.58673	543.04913	245.92879	357.93439	555.84985	288.71759	240.47856	1373.74634	56.65073	283.00204	1432.26794	70.82216	304.29797	1332.11121	300.51419	344.65686	1313.37939	275.75964	308.99304	1354.47314	238.82808	333.72296	1113.10132	715.85321	287.76904	1194.21826	591.49622	330.65472	1174.63159	573.12195	321.18839	1160.09692	636.89056	344.67072	763.98145	721.49017	295.15469	669.71301	606.56567	339.31683	694.39734	595.50201	318.90323	703.31665	657.50873	261.66061	855.27515	1488.65259	373.35507	868.64093	1477.11047	381.41605	992.23389	1461.91626	391.85648	931.47101	1262.30359	382.27576	942.11334	890.70026	254.12366	937.65796	1226.13806	342.24533	755.80609	1221.28247	303.81796	1097.21838	1228.62695	192.00981	703.36566	702.90393	192.35675	662.34833	703.51453	167.23544	717.34662	620.18024	181.06134	1148.36670	699.95178	176.29756	1196.54028	697.37262	151.72539	1132.94434	619.61475	246.91522	728.52759	1010.24500	266.40579	691.78021	983.36218	275.99734	708.04913	1060.36670	217.10081	1115.52014	978.80597	241.77826	1147.01416	1047.57593	235.56052	1161.05334	987.00409 
1354	6.765	396.58490	973.55811	827.86810	398.77594	915.48541	831.30591	390.04153	944.76373	845.81195	232.53690	-186.18588	612.88123	167.94385	2033.69348	608.70032	291.19534	1380.14490	28.06623	126.15803	1490.91553	44.66813	191.60606	1539.03589	29.94068	155.21616	1519.46619	42.03861	333.09180	484.07159	39.26010	163.49947	386.72513	49.70821	226.31519	336.37238	30.40932	188.34148	356.53311	46.29924	271.85800	500.99500	63.85520	313.20206	432.19571	73.42352	336.76605	502.88388	200.44049	322.96902	515.56677	263.23819	362.49905	543.02405	245.93913	357.86945	555.81067	288.74789	240.49332	1373.75952	56.65301	282.98602	1432.26624	70.82054	304.65848	1332.23193	300.21741	344.58942	1313.47278	275.83545	309.23956	1354.73792	238.95061	333.56406	1113.18298	715.89587	287.64563	1194.25281	591.52930	330.53339	1174.70544	573.17157	321.22836	1160.46484	637.14075	344.79764	764.14673	721.38873	295.15222	669.64923	606.56317	339.33701	694.30194	595.47064	318.96503	703.29742	657.47052	261.50742	855.02728	1488.51611	373.19177	868.46106	1477.06323	381.14871	992.10345	1462.02454	391.77533	931.57263	1262.33118	382.24744	942.23419	890.69598	254.03896	937.56067	1226.09607	342.43521	755.85107	1221.18420	303.55350	1097.20996	1228.64856	192.07074	703.33917	702.83990	192.45692	662.31653	703.45984	167.25287	717.27710	620.11694	181.00467	1148.30896	699.94281	176.22345	1196.48682	697.36627	151.64378	1132.87170	619.63770	247.09241	728.51978	1010.12982	266.64816	691.80951	983.24231	276.28174	708.06024	1060.25537	216.95514	1115.51135	978.81256	241.55380	1147.00000	1047.59509	235.37973	1161.06018	987.02887 
1355	6.770	396.50769	973.71906	827.83722	398.76944	915.64966	831.24042	390.00107	944.91492	845.76489	232.86403	-186.23459	612.55481	167.60899	2033.64978	608.93182	291.19189	1380.15015	28.06292	126.14918	1490.91272	44.67116	191.60840	1539.03613	29.93615	155.21132	1519.47571	42.02960	333.08011	484.08740	39.26524	163.49535	386.71249	49.70345	226.31195	336.36066	30.40712	188.34532	356.53119	46.29323	271.84366	501.00723	63.84910	313.17822	432.17871	73.43446	336.72821	502.89832	200.46013	322.91852	515.54492	263.23798	362.46371	543.01166	245.96178	357.99118	555.74854	288.85144	240.49275	1373.76074	56.66568	282.97079	1432.28235	70.82700	304.10034	1332.23413	300.57574	344.52063	1313.56104	275.87262	309.16238	1354.79688	238.95091	333.21780	1112.94263	715.73328	287.45969	1194.28015	591.57977	330.38693	1174.77319	573.24963	321.03226	1160.53735	637.12598	344.89719	764.29443	721.31024	295.16125	669.56921	606.56586	339.35748	694.21472	595.45251	318.99939	703.25293	657.43329	261.33917	854.77606	1488.38293	373.01764	868.31934	1477.02551	380.85767	992.00140	1462.13416	391.69305	931.67316	1262.34412	382.19199	942.35846	890.69519	253.96500	937.46777	1226.06885	342.65881	755.98322	1221.02686	303.30792	1097.21252	1228.67480	192.14905	703.30597	702.76837	192.56763	662.28961	703.39856	167.28506	717.19653	620.05237	180.93916	1148.25403	699.93823	176.15640	1196.43176	697.35315	151.55428	1132.80066	619.67188	247.27707	728.53033	1010.01123	266.89148	691.83661	983.09778	276.75345	708.04358	1060.14624	216.48380	1115.68884	978.94116	241.33841	1147.04822	1047.62427	235.21155	1161.08936	987.04755 
1356	6.775	396.38449	973.89270	827.83380	398.71948	915.82617	831.19556	389.91141	945.08752	845.73956	233.20833	-186.25079	612.23224	167.28963	2033.58594	609.14520	291.17786	1380.14221	28.07063	126.14217	1490.94434	44.68013	191.61256	1539.04431	29.93768	155.21448	1519.47778	42.02430	333.05884	484.09921	39.26717	163.49736	386.72192	49.70186	226.31454	336.36359	30.40917	188.34290	356.52438	46.30116	271.79938	501.01859	63.85400	313.16116	432.24527	73.43081	336.70969	502.89505	200.47276	322.89117	515.56287	263.21454	362.39011	543.05548	245.93904	357.95404	555.77936	288.85196	240.48734	1373.76050	56.66553	282.96912	1432.28101	70.82965	304.00027	1332.26965	300.60172	344.42734	1313.60254	275.93192	309.09344	1354.84924	238.98296	333.13760	1113.35901	716.02228	287.25226	1194.31958	591.61438	330.19168	1174.86438	573.32544	320.80115	1160.65356	637.24902	344.96490	764.40930	721.25671	295.16663	669.50775	606.54688	339.34515	694.17816	595.38141	319.01270	703.23676	657.38971	261.15689	854.49078	1488.26648	372.83334	868.20007	1476.99756	380.53476	991.92188	1462.23169	391.62323	931.77380	1262.36121	382.11496	942.48364	890.68494	253.89450	937.38916	1226.03503	342.85300	756.03851	1220.92114	303.09570	1097.20178	1228.68250	192.23689	703.28400	702.69373	192.67590	662.26361	703.33514	167.31532	717.14612	620.00055	180.87244	1148.20142	699.92590	176.09064	1196.38660	697.35950	151.48103	1132.73511	619.70227	247.47879	728.48578	1009.92609	267.12686	691.83179	982.99023	276.88223	708.06647	1060.01721	216.33763	1115.74646	978.95343	241.12726	1147.10950	1047.64417	235.07692	1161.13867	987.04956 
